<?xml version="1.0" encoding="UTF-8" standalone="no"?>
<!-- Generator: Adobe Illustrator 19.0.0, SVG Export Plug-In . SVG Version: 6.00 Build 0)  -->

<svg
   xmlns:dc="http://purl.org/dc/elements/1.1/"
   xmlns:cc="http://creativecommons.org/ns#"
   xmlns:rdf="http://www.w3.org/1999/02/22-rdf-syntax-ns#"
   xmlns:svg="http://www.w3.org/2000/svg"
   xmlns="http://www.w3.org/2000/svg"
   xmlns:sodipodi="http://sodipodi.sourceforge.net/DTD/sodipodi-0.dtd"
   xmlns:inkscape="http://www.inkscape.org/namespaces/inkscape"
   version="1.1"
   id="Layer_1"
   x="0px"
   y="0px"
   viewBox="0 0 241.17796 231.46611"
   xml:space="preserve"
   sodipodi:docname="linkedin-blue2-small.svg"
   inkscape:version="0.92.3 (2405546, 2018-03-11)"
   width="241.17796"
   height="231.46611"><metadata
   id="metadata39"><rdf:RDF><cc:Work
       rdf:about=""><dc:format>image/svg+xml</dc:format><dc:type
         rdf:resource="http://purl.org/dc/dcmitype/StillImage" /><dc:title /></cc:Work></rdf:RDF></metadata><defs
   id="defs37" /><sodipodi:namedview
   pagecolor="#ffffff"
   bordercolor="#666666"
   borderopacity="1"
   objecttolerance="10"
   gridtolerance="10"
   guidetolerance="10"
   inkscape:pageopacity="0"
   inkscape:pageshadow="2"
   inkscape:window-width="1366"
   inkscape:window-height="714"
   id="namedview35"
   showgrid="false"
   inkscape:zoom="0.61780105"
   inkscape:cx="552.17771"
   inkscape:cy="163.91272"
   inkscape:window-x="0"
   inkscape:window-y="0"
   inkscape:window-maximized="1"
   inkscape:current-layer="Layer_1"
   fit-margin-top="0"
   fit-margin-left="0"
   fit-margin-right="0"
   fit-margin-bottom="0" />
<path
   style="fill:#0077b7;stroke-width:0.53134036"
   d="M 206.24983,14.567797 H 36.54678 c -10.350644,0 -18.741695,8.053156 -18.741695,17.986994 V 195.42364 c 0,9.93436 8.391051,17.98752 18.741695,17.98752 h 169.70249 c 10.3512,0 18.74224,-8.05316 18.74224,-17.98752 V 32.554791 c 0,-9.933838 -8.39104,-17.986994 -18.74168,-17.986994 z M 81.917355,186.26227 c 0,2.89104 -2.441763,5.23448 -5.454101,5.23448 H 53.24644 c -3.012338,0 -5.454101,-2.34344 -5.454101,-5.23448 V 92.857427 c 0,-2.891039 2.441763,-5.23447 5.454101,-5.23447 h 23.216814 c 3.012338,0 5.454101,2.343431 5.454101,5.23447 z M 64.854848,78.818147 c -12.181153,0 -22.056136,-9.477326 -22.056136,-21.16797 0,-11.690634 9.874983,-21.167966 22.056136,-21.167966 12.181152,0 22.056136,9.477332 22.056136,21.167966 0,11.690644 -9.874441,21.16797 -22.056136,21.16797 z M 203.24779,186.68391 c 0,2.65783 -2.24542,4.81284 -5.01478,4.81284 h -24.91335 c -2.76936,0 -5.01477,-2.15501 -5.01477,-4.81284 v -43.81217 c 0,-6.53581 1.99755,-28.64022 -17.79689,-28.64022 -15.35404,0 -18.46834,15.1298 -19.0937,21.91963 v 50.53276 c 0,2.65783 -2.24488,4.81284 -5.01478,4.81284 h -24.09545 c -2.769354,0 -5.014788,-2.15501 -5.014788,-4.81284 V 92.4358 c 0,-2.657847 2.245434,-4.812843 5.014788,-4.812843 h 24.09545 c 2.76937,0 5.01478,2.154996 5.01478,4.812843 v 8.14892 c 5.69329,-8.199939 14.15431,-14.529092 32.16921,-14.529092 39.89262,0 39.66428,35.768912 39.66428,55.422132 z"
   id="path2"
   inkscape:connector-curvature="0" />
<g
   id="g4"
   transform="matrix(0.62245478,0,0,0.60789444,17.805085,-18.804515)">
</g>
<g
   id="g6"
   transform="matrix(0.62245478,0,0,0.60789444,17.805085,-18.804515)">
</g>
<g
   id="g8"
   transform="matrix(0.62245478,0,0,0.60789444,17.805085,-18.804515)">
</g>
<g
   id="g10"
   transform="matrix(0.62245478,0,0,0.60789444,17.805085,-18.804515)">
</g>
<g
   id="g12"
   transform="matrix(0.62245478,0,0,0.60789444,17.805085,-18.804515)">
</g>
<g
   id="g14"
   transform="matrix(0.62245478,0,0,0.60789444,17.805085,-18.804515)">
</g>
<g
   id="g16"
   transform="matrix(0.62245478,0,0,0.60789444,17.805085,-18.804515)">
</g>
<g
   id="g18"
   transform="matrix(0.62245478,0,0,0.60789444,17.805085,-18.804515)">
</g>
<g
   id="g20"
   transform="matrix(0.62245478,0,0,0.60789444,17.805085,-18.804515)">
</g>
<g
   id="g22"
   transform="matrix(0.62245478,0,0,0.60789444,17.805085,-18.804515)">
</g>
<g
   id="g24"
   transform="matrix(0.62245478,0,0,0.60789444,17.805085,-18.804515)">
</g>
<g
   id="g26"
   transform="matrix(0.62245478,0,0,0.60789444,17.805085,-18.804515)">
</g>
<g
   id="g28"
   transform="matrix(0.62245478,0,0,0.60789444,17.805085,-18.804515)">
</g>
<g
   id="g30"
   transform="matrix(0.62245478,0,0,0.60789444,17.805085,-18.804515)">
</g>
<g
   id="g32"
   transform="matrix(0.62245478,0,0,0.60789444,17.805085,-18.804515)">
</g>
</svg>